
<svg xmlns="http://www.w3.org/2000/svg" version="1.1" xmlns:xlink="http://www.w3.org/1999/xlink" preserveAspectRatio="none" x="0px" y="0px" width="299px" height="302px" viewBox="0 0 299 302">
<defs>
<linearGradient id="Gradient_1" gradientUnits="userSpaceOnUse" x1="443.625" y1="216.5375" x2="436.07500000000005" y2="290.2625" spreadMethod="pad">
<stop  offset="0%" stop-color="#FFFFFF"/>

<stop  offset="100%" stop-color="#B5B0C5"/>
</linearGradient>

<linearGradient id="Gradient_2" gradientUnits="userSpaceOnUse" x1="30.5625" y1="14.725000000000001" x2="28.4375" y2="56.675000000000004" spreadMethod="pad">
<stop  offset="0%" stop-color="#FBEFD7"/>

<stop  offset="100%" stop-color="#D2C2A0"/>
</linearGradient>

<linearGradient id="Gradient_3" gradientUnits="userSpaceOnUse" x1="416.8125" y1="250.47500000000002" x2="417.5875" y2="271.625" spreadMethod="pad">
<stop  offset="0%" stop-color="#FFFFFF"/>

<stop  offset="100%" stop-color="#B5B0C5"/>
</linearGradient>

<linearGradient id="Gradient_4" gradientUnits="userSpaceOnUse" x1="416.5" y1="254.28750000000002" x2="411.4" y2="273.3125" spreadMethod="pad">
<stop  offset="0%" stop-color="#FFFFFF"/>

<stop  offset="100%" stop-color="#B5B0C5"/>
</linearGradient>

<filter id="Filter_1" x="-20%" y="-20%" width="140%" height="140%" color-interpolation-filters="sRGB">
<feColorMatrix in="SourceGraphic" type="matrix" values="0 0 0 0 255 0 0 0 0 255 0 0 0 0 255 0 0 0 255 0" result="result1"/>

<feComposite in2="result1" in="BackgroundImage" operator="in" result="result2"/>

<feBlend mode="multiply" in2="result2" in="SourceGraphic" result="result3"/>
</filter>

<filter id="Filter_2" x="-20%" y="-20%" width="140%" height="140%" color-interpolation-filters="sRGB">
<feColorMatrix in="SourceGraphic" type="matrix" values="1 0 0 0 0 0 1 0 0 0 0 0 1 0 0 0 0 0 0.6 0" result="result1"/>
</filter>

<filter id="Filter_3" x="-20%" y="-20%" width="140%" height="140%" color-interpolation-filters="sRGB">
<feColorMatrix in="SourceGraphic" type="matrix" values="1 0 0 0 0 0 1 0 0 0 0 0 1 0 0 0 0 0 0.2 0" result="result1"/>
</filter>

<filter id="Filter_4" x="-20%" y="-20%" width="140%" height="140%" color-interpolation-filters="sRGB">
<feColorMatrix in="SourceGraphic" type="matrix" values="0 0 0 0 255 0 0 0 0 255 0 0 0 0 255 0 0 0 255 0" result="result1"/>

<feComposite in2="result1" in="BackgroundImage" operator="in" result="result2"/>

<feBlend mode="multiply" in2="result2" in="SourceGraphic" result="result3"/>
</filter>

<filter id="Filter_5" x="-20%" y="-20%" width="140%" height="140%" color-interpolation-filters="sRGB">
<feColorMatrix in="SourceGraphic" type="matrix" values="0 0 0 0 255 0 0 0 0 255 0 0 0 0 255 0 0 0 255 0" result="result1"/>

<feComposite in2="result1" in="BackgroundImage" operator="in" result="result2"/>

<feBlend mode="multiply" in2="result2" in="SourceGraphic" result="result3"/>
</filter>

<g id="Layer0_0_MEMBER_0_FILL">
<path fill="#B5B0C5" stroke="none" d="
M 423.75 284.75
Q 425.6 286.35 428.05 287.7 435.9 291.95 446.85 291.95 457.85 291.95 461.5 286.75 463.3 284.1 462.9 281.5
L 422.4 283.4 423.75 284.75 Z"/>
</g>

<g id="Layer0_0_MEMBER_1_MEMBER_0_FILL">
<path fill="url(#Gradient_1)" stroke="none" d="
M 477 237.75
Q 473.25 226.15 463.2 218.9 453 211.45 440.25 211.45 431.45 211.45 423.7 215.1 413.75 219.75 407.8 228.8 401.65 238.15 401.65 249.25 401.65 264.2 412.1 275.1 422.45 285.95 437.5 287
L 440.25 287.1
Q 444.55 287.1 448.6 286.2 461.7 283.35 470.2 273.1 478.85 262.7 478.85 249.25 478.85 243.4 477 237.75 Z"/>
</g>

<g id="Layer0_0_MEMBER_1_MEMBER_1_FILL">
<path fill="#000000" stroke="none" d="
M 478.3 237.35
Q 474.3 225.15 463.8 217.65 453.35 210.15 440.25 210.15 431.2 210.15 423.15 213.9
L 423.1 213.95
Q 412.75 218.8 406.55 228.4 400.35 238 400.35 249.25 400.35 264.6 411.1 275.9 421.8 287.2 437.4 288.3
L 440.25 288.4
Q 444.75 288.4 448.85 287.5 455.4 286.05 461.2 282.6 466.95 279.1 471.2 273.95 475.55 268.75 477.85 262.35 480.15 256 480.15 249.25 480.15 243.05 478.3 237.35
M 463.2 218.9
Q 473.25 226.15 477 237.75 478.85 243.4 478.85 249.25 478.85 262.7 470.2 273.1 461.7 283.35 448.6 286.2 444.55 287.1 440.25 287.1
L 437.5 287
Q 422.45 285.95 412.1 275.1 401.65 264.2 401.65 249.25 401.65 238.15 407.8 228.8 413.75 219.75 423.7 215.1 431.45 211.45 440.25 211.45 453 211.45 463.2 218.9 Z"/>
</g>

<g id="vector_file_ai_Layer_1__Path__6_1_0_Layer0_0_FILL">
<path fill="#B5B0C5" stroke="none" d="
M 22.1 44.4
Q 2.7 40.85 3.05 29.65 3.4 18.6 12.55 8.4 17.15 3.2 22.05 0 12.1 4.65 6.15 13.7 0 23.05 0 34.15 0 49.1 10.45 60 20.8 70.85 35.85 71.9
L 38.6 72
Q 42.9 72 46.95 71.1 46 65.05 43.65 54.8
L 41.55 45.7
Q 31.8 46.15 22.1 44.4 Z"/>
</g>

<g id="Layer0_0_MEMBER_4_MEMBER_0_FILL">
<path fill="#FFFFFF" stroke="none" d="
M 477 237.2
Q 472.75 230.1 465.45 226.35 458.3 222.65 449.15 222.65 435.5 222.65 425.6 232.55 415.7 242.45 415.7 256.1 415.7 266.55 421.7 275.1 427.55 283.4 437.05 287
L 439.85 287.1
Q 456 287.1 467.45 275.9 478.85 264.7 478.85 248.85 478.85 242.85 477 237.2 Z"/>
</g>

<g id="Layer0_0_MEMBER_4_MEMBER_1_FILL">
<path fill="#000000" stroke="none" d="
M 466.25 225.25
Q 458.75 221.35 449.15 221.35 442.3 221.35 435.95 224 429.65 226.65 424.65 231.6 419.7 236.6 417.05 242.9 414.4 249.25 414.4 256.1 414.4 266.75 420.5 275.6 426.6 284.45 436.55 288.25
L 436.95 288.3
Q 437.9 288.4 439.85 288.4 456.55 288.4 468.35 276.8 480.2 265.2 480.2 248.85 480.2 242.6 478.25 236.8
L 478.15 236.5
Q 473.75 229.15 466.25 225.25
M 465.45 226.35
Q 472.75 230.1 477 237.2 478.85 242.85 478.85 248.85 478.85 264.7 467.45 275.9 456 287.1 439.85 287.1
L 437.05 287
Q 427.55 283.4 421.7 275.1 415.7 266.55 415.7 256.1 415.7 242.45 425.6 232.55 435.5 222.65 449.15 222.65 458.3 222.65 465.45 226.35 Z"/>
</g>

<g id="Layer0_0_MEMBER_5_MEMBER_0_FILL">
<path fill="#13151A" stroke="none" d="
M 471 233.3
Q 462.8 225.85 449.35 225.85 436.65 225.85 427.65 234.8 418.7 243.75 418.7 256.45 418.7 269.15 427.65 278.1 436.65 287.1 449.35 287.1 462 287.1 471 278.1 479.95 269.15 479.95 256.45 479.95 241.45 471 233.3 Z"/>
</g>

<g id="Layer0_0_MEMBER_5_MEMBER_1_FILL">
<path fill="#000000" stroke="none" d="
M 472.7 233.1
Q 464.1 224.5 449.35 224.5 436.1 224.5 426.75 233.9 417.4 243.25 417.4 256.45 417.4 269.65 426.75 279.05 436.1 288.4 449.35 288.4 462.55 288.4 471.9 279.05 481.25 269.65 481.25 256.45 481.25 241.65 472.7 233.1
M 449.35 225.85
Q 462.8 225.85 471 233.3 479.95 241.45 479.95 256.45 479.95 269.15 471 278.1 462 287.1 449.35 287.1 436.65 287.1 427.65 278.1 418.7 269.15 418.7 256.45 418.7 243.75 427.65 234.8 436.65 225.85 449.35 225.85 Z"/>
</g>

<g id="Mask_vector_file_ai_Layer_1__Clip_Group__1_0_2_MASK_0_FILL">
<path fill="#FFFFFF" stroke="none" d="
M 64.15 30.75
Q 64.15 15.75 55.2 7.6 47 0.15 33.55 0.15 20.85 0.15 11.85 9.1 2.9 18.05 2.9 30.75 2.9 43.45 11.85 52.4 20.85 61.4 33.55 61.4 46.2 61.4 55.2 52.4 64.15 43.45 64.15 30.75 Z"/>
</g>

<g id="vector_file_ai_Layer_1__Clip_Group__1_0_Layer2_0_MEMBER_0_MEMBER_0_FILL">
<path fill="url(#Gradient_2)" stroke="none" d="
M 57.8 36.75
Q 58.8 32.05 58.4 25.8 57.75 15.95 51.25 9.1 44.9 2.4 35.7 1.4
L 35.55 1.4 34.25 1.3
Q 32.1 1.15 29.9 1.3 17.7 1.85 9.8 8.35 1.05 15.5 1.25 27.45 1.45 39.55 9.05 46.05 15.65 51.65 24.45 51.05
L 26.25 50.9 26.5 52.55
Q 26.75 54.35 27.05 55 27.35 55.75 29.7 55.9 31.95 56 32.9 55.5 34.1 54.8 34 50.8
L 34.3 53.05
Q 34.6 55.3 34.8 55.55 35.05 55.8 36.8 55.85 38.6 55.85 39.6 55.55 40.9 55.1 40.85 51.15
L 40.95 53.05
Q 41.1 55 41.25 55.3 41.45 55.65 42.9 55.8 44.5 55.9 45.9 55.55 47.05 55.35 47.15 53.4 47.25 52.25 46.95 50.8 47.65 53.6 47.65 54.75 47.7 55.5 49.4 55.4 51.05 55.3 51.4 54.9 51.5 53.8 51.7 52.35 52.05 49.35 53.55 46.65 55 44.25 55.75 42.7 57.15 39.85 57.8 36.75 Z"/>
</g>

<g id="vector_file_ai_Layer_1__Clip_Group__1_0_Layer2_0_MEMBER_0_MEMBER_1_FILL">
<path fill="#000000" stroke="none" d="
M 54.65 47.25
L 55.3 46.1
Q 56.65 43.8 57.3 42.35 58.4 39.85 59 37.05
L 59 36.95
Q 60.1 31.85 59.65 25.75 59 15.5 52.35 8.4 45.7 1.25 35.85 0.15
L 29.8 0.05
Q 17.4 0.65 9.15 7.3 -0.2 14.85 0 27.45 0.2 39.45 7.55 46.3 14 52.35 23.05 52.35
L 25.15 52.25
Q 25.65 54.9 25.9 55.5 26.65 57.15 30.3 57.15 32.5 57.15 33.5 56.6
L 33.85 56.35
Q 34.45 57.05 36.95 57.05 38.95 57.05 39.95 56.7 40.3 56.65 40.6 56.4 41.45 57.05 43.7 57.05 44.95 57.05 46.2 56.8 46.85 56.6 47.25 56.25 47.9 56.65 49 56.65 49.75 56.65 50.65 56.5 51.8 56.25 52.25 55.85 52.7 55.4 52.8 54.05 52.95 50.35 54.65 47.25
M 55.75 42.7
Q 55 44.25 53.55 46.65 52.05 49.35 51.7 52.35 51.5 53.8 51.4 54.9 51.25 55.05 50.5 55.25 49.7 55.4 49 55.4 47.7 55.4 47.65 54.75 47.65 53.6 46.95 50.8 47.25 52.25 47.15 53.4 47.05 55.35 45.9 55.55 45.05 55.8 43.7 55.8 41.5 55.8 41.25 55.3 41.1 55 40.95 53.05
L 40.85 51.15
Q 40.9 55.1 39.6 55.55 38.8 55.8 36.95 55.8 35.05 55.8 34.8 55.55 34.6 55.3 34.3 53.05
L 34 50.8
Q 34.1 54.8 32.9 55.5 32.1 55.9 30.3 55.9 27.5 55.9 27.05 55 26.75 54.35 26.5 52.55
L 26.25 50.9 23.05 51.1
Q 14.5 51.1 8.5 45.5 1.45 39.05 1.25 27.45 1.05 15.5 9.8 8.35 17.7 1.85 29.9 1.3
L 35.7 1.4
Q 44.9 2.4 51.25 9.1 57.75 15.95 58.4 25.8 58.8 32.05 57.8 36.75 57.15 39.85 55.75 42.7 Z"/>
</g>

<g id="vector_file_ai_Layer_1__Clip_Group__1_0_Layer2_0_MEMBER_1_FILL">
<path fill="#D2C2A0" stroke="none" d="
M 15.1 45.2
Q 9 37.95 9.8 24.1 10.55 10.7 20.3 4.65 25.2 1.65 29.9 1.3 17.7 1.85 9.8 8.35 1.05 15.5 1.25 27.45 1.5 39.55 9.1 46.05 15.65 51.65 24.45 51.05 18.75 49.55 15.1 45.2 Z"/>
</g>

<g id="vector_file_ai_Layer_1__Clip_Group__1_0_Layer2_0_MEMBER_2_MEMBER_0_MEMBER_0_FILL">
<path fill="#000000" stroke="none" d="
M 19.05 16.65
Q 19.3 19 18.2 20.85 17.9 21.3 16.8 22.5 16 23.45 15.45 24.35 14.15 26.35 13.55 28.55 12.9 30.85 13.2 33.05 13.4 31.05 14.25 28.75 14.95 26.85 16.2 24.85 17 23.65 17.5 23.05 18.65 21.65 18.85 21.2 19.9 19.05 19.05 16.65 Z"/>
</g>

<g id="vector_file_ai_Layer_1__Clip_Group__1_0_Layer2_0_MEMBER_2_MEMBER_1_MEMBER_0_FILL">
<path fill="#000000" stroke="none" d="
M 19.2 48.45
Q 17.85 47.65 16.5 46.2 15.5 45.1 14.55 43.25 15.4 45.3 16.25 46.4 17.55 48.05 18.85 48.95 20.15 49.95 22 50.85 23.7 51.6 25.5 52.05
L 25.55 52.05
Q 26.15 52.15 26.25 51.55 26.35 50.95 25.75 50.85
L 25.7 50.85
Q 23.95 50.55 22.35 49.95 20.7 49.35 19.2 48.45 Z"/>
</g>

<g id="vector_file_ai_Layer_1__Clip_Group__1_0_Layer2_0_MEMBER_2_MEMBER_2_MEMBER_0_FILL">
<path fill="#000000" stroke="none" d="
M 33.15 19.05
Q 34.5 19.5 35.65 20.25 36.9 20.95 37.85 21.9 39 22.95 39.65 24 39.9 24.4 41 26.45 40.65 24.65 40.05 23.75 39.4 22.5 38.3 21.45 35.95 19.25 33.15 19.05 Z"/>
</g>

<g id="vector_file_ai_Layer_1__Clip_Group__1_0_Layer2_0_MEMBER_2_MEMBER_3_MEMBER_0_FILL">
<path fill="#000000" stroke="none" d="
M 49.65 19.25
Q 48.4 19.4 47 20.05 45.7 20.65 44.7 21.6 43.65 22.65 43 23.8 42.4 24.85 42.15 26.4 42.85 24.85 43.4 24.05 44.15 22.95 45.1 22.05 46.2 21.05 47.25 20.45 48.4 19.8 49.65 19.25 Z"/>
</g>

<g id="vector_file_ai_Layer_1__Clip_Group__1_0_Layer2_0_MEMBER_3_MEMBER_0_FILL">
<path fill="#13151A" stroke="none" d="
M 36.15 34.25
Q 36.05 29.2 33.05 25.65 30 22.15 25.85 22.2 21.7 22.3 18.8 25.9 15.95 29.55 16 34.6 16.1 39.65 19.15 43.2 22.15 46.75 26.3 46.65 30.45 46.6 33.35 42.95 36.25 39.3 36.15 34.25 Z"/>
</g>

<g id="vector_file_ai_Layer_1__Clip_Group__1_0_Layer2_0_MEMBER_3_MEMBER_1_FILL">
<path fill="#938870" stroke="none" d="
M 25.85 22.2
L 24.7 22.3
Q 28.35 22.85 30.9 26.25 33.45 29.65 33.55 34.25 33.65 38.9 31.1 42.45 28.6 45.95 24.85 46.55
L 26.3 46.65
Q 30.45 46.6 33.35 42.95 36.25 39.3 36.15 34.25 36.05 29.2 33.05 25.65 30 22.15 25.85 22.2 Z"/>
</g>

<g id="vector_file_ai_Layer_1__Clip_Group__1_0_Layer2_0_MEMBER_3_MEMBER_2_FILL">
<path fill="#13151A" stroke="none" d="
M 36.25 28.15
Q 38.35 30.35 39.35 32.55 37.6 26.9 33.35 24.25 30.55 22.5 27.15 22.2 25.55 22.05 24.1 22.4
L 23 22.75 25.1 24.1 26.4 23.6
Q 32 23.7 36.25 28.15 Z"/>
</g>

<g id="vector_file_ai_Layer_1__Clip_Group__1_0_Layer2_0_MEMBER_3_MEMBER_3_FILL">
<path fill="#13151A" stroke="none" d="
M 27.4 46.6
L 27.65 46.55
Q 32.4 46 35.85 42.6 37.6 40.85 38.35 39.25 35.3 43.15 30.5 44.9
L 26.3 45.85 26.3 45.95 25.7 45.9 23.5 46.25 24.5 46.55
Q 25.8 46.8 27.4 46.6 Z"/>
</g>

<g id="vector_file_ai_Layer_1__Clip_Group__1_0_Layer2_0_MEMBER_4_MEMBER_0_FILL">
<path fill="#13151A" stroke="none" d="
M 56.5 34.2
Q 56.85 29.45 55 25.8 53.15 22.25 50.45 22.05 47.85 21.85 45.8 25.15 43.7 28.5 43.35 33.35 43 38.2 44.6 41.75 46.2 45.3 48.8 45.5 51.45 45.7 53.8 42.4 56.15 39 56.5 34.2 Z"/>
</g>

<g id="vector_file_ai_Layer_1__Clip_Group__1_0_Layer2_0_MEMBER_4_MEMBER_1_FILL">
<path fill="#938870" stroke="none" d="
M 50.45 22.05
Q 49.9 22 49.25 22.15 51.7 22.85 53.3 26.25 54.95 29.8 54.65 34.2 54.3 38.4 52.35 41.65 50.5 44.75 48.1 45.4
L 48.8 45.5
Q 51.45 45.7 53.8 42.4 56.15 39 56.5 34.2 56.85 29.45 55 25.8 53.15 22.25 50.45 22.05 Z"/>
</g>

<g id="vector_file_ai_Layer_1__Clip_Group__1_0_Layer2_0_MEMBER_4_MEMBER_2_FILL">
<path fill="#13151A" stroke="none" d="
M 48.6 22.4
L 50.35 23.4
Q 54 23.65 56.05 28.25 57.1 30.55 57.4 32.8 56.65 25.95 53.5 23.3 52.5 22.5 51.35 22.2
L 50.45 22.05
Q 49.7 21.9 48.6 22.4 Z"/>
</g>

<g id="vector_file_ai_Layer_1__Clip_Group__1_0_Layer2_0_MEMBER_4_MEMBER_3_FILL">
<path fill="#13151A" stroke="none" d="
M 48.8 44.85
L 47.1 44.95 47.8 45.3
Q 48.7 45.65 49.75 45.5
L 49.8 45.5 50.3 45.4
Q 52.95 44.85 54.85 41.95 55.85 40.45 56.25 39.1 54.05 42.65 51.2 44.05
L 48.85 44.75 48.8 44.85 Z"/>
</g>

<g id="vector_file_ai_Layer_1__Path__3_7_0_Layer0_0_FILL">
<path fill="#13151A" stroke="none" d="
M 61.25 30.6
Q 61.25 15.6 52.3 7.45 44.1 0 30.65 0 17.95 0 8.95 8.95 0 17.9 0 30.6 0 43.3 8.95 52.25 17.95 61.25 30.65 61.25 43.3 61.25 52.3 52.25 61.25 43.3 61.25 30.6 Z"/>
</g>

<g id="Layer0_0_MEMBER_8_FILL">
<path fill="#FFFFFF" stroke="none" d="
M 467.05 234.8
Q 460.7 228.1 451.5 227.1 458.25 228.3 464 233.5 474.75 243.3 473.6 262.45 474.6 257.75 474.2 251.5 473.55 241.65 467.05 234.8 Z"/>
</g>

<g id="Layer0_0_MEMBER_9_FILL">
<path fill="#FFFFFF" stroke="none" d="
M 468.35 236.5
Q 467.25 235.15 466.05 234.55 464.8 234 464.1 234.5 463.4 235.05 463.7 236.4 463.95 237.75 465 239.1 466.05 240.45 467.3 241.05 468.55 241.65 469.2 241.1 469.9 240.55 469.65 239.2 469.4 237.85 468.35 236.5 Z"/>
</g>

<g id="Layer0_0_MEMBER_10_FILL">
<path fill="#FFFFFF" stroke="none" d="
M 462.75 238.8
Q 462.25 238.15 461.65 237.9 461.05 237.65 460.7 237.95 460.35 238.2 460.45 238.85 460.55 239.45 461.05 240.1 461.55 240.75 462.15 241 462.7 241.25 463.05 240.95 463.4 240.7 463.35 240.05 463.25 239.45 462.75 238.8 Z"/>
</g>

<g id="Layer0_0_MEMBER_11_MEMBER_0_MEMBER_0_FILL">
<path fill="url(#Gradient_3)" stroke="none" d="
M 424.5 258.7
Q 424.2 254.6 421.8 251.85 419.45 249.1 416.4 249.3 413.8 249.5 411.95 251.85 410.1 254.2 409.8 257.65 409.75 258.7 409.8 259.8
L 409.85 260.65 410.2 262.25
Q 410.45 263.4 411.1 264.65 411.6 265.7 412.15 266.35 414.6 269.5 417.9 269.25 420.35 269.05 422.15 266.9 423.95 264.8 424.4 261.6
L 424.5 260.7
Q 424.6 259.75 424.5 258.7 Z"/>
</g>

<g id="Layer0_0_MEMBER_11_MEMBER_0_MEMBER_1_FILL">
<path fill="#000000" stroke="none" d="
M 425.6 260.85
Q 425.7 259.7 425.6 258.65 425.3 254.25 422.75 251.2 420.2 248.15 416.8 248.15
L 416.3 248.15
Q 413.25 248.4 411.15 251 409.05 253.6 408.7 257.55 408.55 258.55 408.65 259.9
L 409.1 262.5
Q 409.45 263.9 410.1 265.2 410.6 266.1 411.3 267.05 413.85 270.4 417.45 270.4
L 417.95 270.35
Q 420.85 270.15 422.9 267.75 425 265.4 425.5 261.75
L 425.6 260.85
M 416.4 249.3
L 416.8 249.25
Q 419.75 249.25 421.95 252 424.2 254.75 424.5 258.7 424.6 259.75 424.5 260.7
L 424.4 261.6
Q 423.95 264.8 422.15 266.9 420.35 269.05 417.9 269.25
L 417.45 269.25
Q 414.4 269.25 412.15 266.35 411.6 265.7 411.1 264.65 410.45 263.4 410.2 262.25
L 409.85 260.65 409.8 259.8
Q 409.75 258.7 409.8 257.65 410.1 254.2 411.95 251.85 413.8 249.5 416.4 249.3 Z"/>
</g>

<g id="vector_file_ai_Layer_1__Path__2_7_0_Layer0_0_FILL">
<path fill="#B5B0C5" stroke="none" d="
M 13.9 3
Q 12.6 0.9 10.05 2.45 6.3 4.7 2.95 2.6 1.25 1.5 0.3 0 -0.45 2.75 0.6 6.05 1.1 7.1 1.65 7.75 4.1 10.9 7.4 10.65 9.85 10.45 11.65 8.3 13.45 6.2 13.9 3 Z"/>
</g>

<g id="Layer0_0_MEMBER_11_MEMBER_2_MEMBER_0_FILL">
<path fill="url(#Gradient_4)" stroke="none" d="
M 420.5 259
Q 420.3 255.5 418.5 253.15 416.75 250.8 414.55 250.95 412.3 251.15 410.9 253.75 409.55 256.3 409.8 259.8 410.1 263.8 412.2 266.15 413.8 268 415.8 267.85 417.85 267.7 419.2 265.4 420.55 263.15 420.55 259.95
L 420.5 259 Z"/>
</g>

<g id="Layer0_0_MEMBER_11_MEMBER_2_MEMBER_1_FILL">
<path fill="#000000" stroke="none" d="
M 421.65 258.9
Q 421.35 255.05 419.35 252.45 417.4 249.8 414.8 249.8
L 414.45 249.85
Q 411.6 250 409.9 253.2 408.4 255.95 408.65 259.9 408.95 264.2 411.35 266.9 413.2 269 415.55 269
L 415.85 269
Q 418.35 268.8 420.05 266.2 421.7 263.65 421.7 259.95
L 421.65 258.9
M 418.6 253.25
Q 420.3 255.6 420.5 259
L 420.55 259.95
Q 420.55 263.15 419.2 265.4 417.85 267.7 415.8 267.85
L 415.55 267.85
Q 413.65 267.85 412.2 266.15 410.1 263.8 409.8 259.8 409.55 256.3 410.9 253.75 412.3 251.15 414.55 250.95
L 414.8 250.95
Q 416.95 250.95 418.6 253.25 Z"/>
</g>

<g id="vector_file_ai_Layer_1__Path__9_0_Layer0_0_FILL">
<path fill="#B5B0C5" stroke="none" d="
M 10.05 2.4
Q 6.3 4.7 2.95 2.55 1.25 1.5 0.3 0 -0.4 2.8 0.6 5.95 1.1 7.55 1.7 8.6 3.3 10.45 5.3 10.3 7.35 10.15 8.7 7.85 10.05 5.6 10.05 2.4 Z"/>
</g>

<g id="Layer0_0_MEMBER_12_MEMBER_0_MEMBER_0_FILL">
<path fill="#FFFFFF" stroke="none" d="
M 471.85 237.3
Q 472.7 238.75 473.9 241.75 474.5 243.25 475.4 246.35
L 477.3 256 477.5 253.5
Q 477.5 251.4 477.45 251 477.3 248.35 476.65 246.05 475.9 243.25 474.85 241.3 473.4 238.65 471.85 237.3 Z"/>
</g>

<g id="Layer0_0_MEMBER_12_MEMBER_1_FILL">
<path fill="#FFFFFF" stroke="none" d="
M 478.15 259.35
Q 478.2 258.55 477.95 257.95 477.7 257.35 477.35 257.35 477 257.35 476.7 257.9 476.45 258.45 476.4 259.3 476.4 260.15 476.65 260.7 476.85 261.3 477.2 261.3 477.55 261.3 477.85 260.75 478.1 260.2 478.15 259.35 Z"/>
</g>

<path id="Layer0_0_MEMBER_3_MEMBER_0_1_STROKES" stroke="#000000" stroke-width="1.1" stroke-linejoin="round" stroke-linecap="round" fill="none" d="
M 3.5209777832030795 142.2409545898438
L 12.769177246093705 153.33879394531255
Q 25.901620483398574 165.1764892578126 44.21305541992183 168.69080505371096"/>

<path id="Layer0_0_MEMBER_3_MEMBER_1_1_STROKES" stroke="#000000" stroke-width="1.1" stroke-linejoin="round" stroke-linecap="round" fill="none" d="
M 145.38835754394518 2.408178710937591
L 152.41698913574214 5.3676025390625455
Q 160.7403686523437 9.251846313476562 168.3238922119142 14.985729980468705 192.55417480468736 33.11220092773442 198.28805847167973 60.856799316406295"/>
</defs>

<g enable-background="new">
<g transform="matrix( 3.69927978515625, 0, 0, 3.69927978515625, -1481,-777.4) ">
<use xlink:href="#Layer0_0_MEMBER_0_FILL"/>
</g>

<g transform="matrix( 3.69927978515625, 0, 0, 3.69927978515625, -1481,-777.4) ">
<use xlink:href="#Layer0_0_MEMBER_1_MEMBER_0_FILL"/>
</g>

<g transform="matrix( 3.69927978515625, 0, 0, 3.69927978515625, -1481,-777.4) ">
<use xlink:href="#Layer0_0_MEMBER_1_MEMBER_1_FILL"/>
</g>

<g filter="url(#Filter_1)" transform="matrix( 1, 0, 0, 1, 0,0) ">
<g transform="matrix( 3.69927978515625, 0, 0, 3.69927978515625, 4.6,18.25) ">
<g transform="matrix( 1, 0, 0, 1, 0,0) ">
<use filter="url(#Filter_2)" xlink:href="#vector_file_ai_Layer_1__Path__6_1_0_Layer0_0_FILL"/>
</g>
</g>
</g>

<g transform="matrix( 3.69927978515625, 0, 0, 3.69927978515625, -1481,-777.4) ">
<use xlink:href="#Layer0_0_MEMBER_3_MEMBER_0_1_STROKES" transform="matrix( 0.2703094482421875, 0, 0, 0.2703094482421875, 400.3,210.1) "/>
</g>

<g transform="matrix( 3.69927978515625, 0, 0, 3.69927978515625, -1481,-777.4) ">
<use xlink:href="#Layer0_0_MEMBER_3_MEMBER_1_1_STROKES" transform="matrix( 0.2703094482421875, 0, 0, 0.2703094482421875, 400.3,210.1) "/>
</g>

<g transform="matrix( 3.69927978515625, 0, 0, 3.69927978515625, -1481,-777.4) ">
<use xlink:href="#Layer0_0_MEMBER_4_MEMBER_0_FILL"/>
</g>

<g transform="matrix( 3.69927978515625, 0, 0, 3.69927978515625, -1481,-777.4) ">
<use xlink:href="#Layer0_0_MEMBER_4_MEMBER_1_FILL"/>
</g>

<g transform="matrix( 3.69927978515625, 0, 0, 3.69927978515625, -1481,-777.4) ">
<use xlink:href="#Layer0_0_MEMBER_5_MEMBER_0_FILL"/>
</g>

<g transform="matrix( 3.69927978515625, 0, 0, 3.69927978515625, -1481,-777.4) ">
<use xlink:href="#Layer0_0_MEMBER_5_MEMBER_1_FILL"/>
</g>

<g transform="matrix( 3.69927978515625, 0, 0, 3.69927978515625, 56.95,57.5) ">
<mask id="Mask_Mask_1">
<g transform="matrix( 1, 0, 0, 1, 0,0) ">
<use xlink:href="#Mask_vector_file_ai_Layer_1__Clip_Group__1_0_2_MASK_0_FILL"/>
</g>
</mask>

<g mask="url(#Mask_Mask_1)">
<g transform="matrix( 1, 0, 0, 1, 0,0) ">
<use xlink:href="#vector_file_ai_Layer_1__Clip_Group__1_0_Layer2_0_MEMBER_0_MEMBER_0_FILL"/>
</g>

<g transform="matrix( 1, 0, 0, 1, 0,0) ">
<use xlink:href="#vector_file_ai_Layer_1__Clip_Group__1_0_Layer2_0_MEMBER_0_MEMBER_1_FILL"/>
</g>

<g transform="matrix( 1, 0, 0, 1, 0,0) ">
<use xlink:href="#vector_file_ai_Layer_1__Clip_Group__1_0_Layer2_0_MEMBER_1_FILL"/>
</g>

<g transform="matrix( 1, 0, 0, 1, 0,0) ">
<use xlink:href="#vector_file_ai_Layer_1__Clip_Group__1_0_Layer2_0_MEMBER_2_MEMBER_0_MEMBER_0_FILL"/>
</g>

<g transform="matrix( 1, 0, 0, 1, 0,0) ">
<use xlink:href="#vector_file_ai_Layer_1__Clip_Group__1_0_Layer2_0_MEMBER_2_MEMBER_1_MEMBER_0_FILL"/>
</g>

<g transform="matrix( 1, 0, 0, 1, 0,0) ">
<use xlink:href="#vector_file_ai_Layer_1__Clip_Group__1_0_Layer2_0_MEMBER_2_MEMBER_2_MEMBER_0_FILL"/>
</g>

<g transform="matrix( 1, 0, 0, 1, 0,0) ">
<use xlink:href="#vector_file_ai_Layer_1__Clip_Group__1_0_Layer2_0_MEMBER_2_MEMBER_3_MEMBER_0_FILL"/>
</g>

<g transform="matrix( 1, 0, 0, 1, 0,0) ">
<use xlink:href="#vector_file_ai_Layer_1__Clip_Group__1_0_Layer2_0_MEMBER_3_MEMBER_0_FILL"/>
</g>

<g transform="matrix( 1, 0, 0, 1, 0,0) ">
<use xlink:href="#vector_file_ai_Layer_1__Clip_Group__1_0_Layer2_0_MEMBER_3_MEMBER_1_FILL"/>
</g>

<g transform="matrix( 1, 0, 0, 1, 0,0) ">
<use xlink:href="#vector_file_ai_Layer_1__Clip_Group__1_0_Layer2_0_MEMBER_3_MEMBER_2_FILL"/>
</g>

<g transform="matrix( 1, 0, 0, 1, 0,0) ">
<use xlink:href="#vector_file_ai_Layer_1__Clip_Group__1_0_Layer2_0_MEMBER_3_MEMBER_3_FILL"/>
</g>

<g transform="matrix( 1, 0, 0, 1, 0,0) ">
<use xlink:href="#vector_file_ai_Layer_1__Clip_Group__1_0_Layer2_0_MEMBER_4_MEMBER_0_FILL"/>
</g>

<g transform="matrix( 1, 0, 0, 1, 0,0) ">
<use xlink:href="#vector_file_ai_Layer_1__Clip_Group__1_0_Layer2_0_MEMBER_4_MEMBER_1_FILL"/>
</g>

<g transform="matrix( 1, 0, 0, 1, 0,0) ">
<use xlink:href="#vector_file_ai_Layer_1__Clip_Group__1_0_Layer2_0_MEMBER_4_MEMBER_2_FILL"/>
</g>

<g transform="matrix( 1, 0, 0, 1, 0,0) ">
<use xlink:href="#vector_file_ai_Layer_1__Clip_Group__1_0_Layer2_0_MEMBER_4_MEMBER_3_FILL"/>
</g>
</g>
</g>

<g transform="matrix( 3.69927978515625, 0, 0, 3.69927978515625, 67.75,58) ">
<g transform="matrix( 1, 0, 0, 1, 0,0) ">
<use filter="url(#Filter_3)" xlink:href="#vector_file_ai_Layer_1__Path__3_7_0_Layer0_0_FILL"/>
</g>
</g>

<g transform="matrix( 3.69927978515625, 0, 0, 3.69927978515625, -1481,-777.4) ">
<use xlink:href="#Layer0_0_MEMBER_8_FILL"/>
</g>

<g transform="matrix( 3.69927978515625, 0, 0, 3.69927978515625, -1481,-777.4) ">
<use xlink:href="#Layer0_0_MEMBER_9_FILL"/>
</g>

<g transform="matrix( 3.69927978515625, 0, 0, 3.69927978515625, -1481,-777.4) ">
<use xlink:href="#Layer0_0_MEMBER_10_FILL"/>
</g>

<g transform="matrix( 3.69927978515625, 0, 0, 3.69927978515625, -1481,-777.4) ">
<use xlink:href="#Layer0_0_MEMBER_11_MEMBER_0_MEMBER_0_FILL"/>
</g>

<g transform="matrix( 3.69927978515625, 0, 0, 3.69927978515625, -1481,-777.4) ">
<use xlink:href="#Layer0_0_MEMBER_11_MEMBER_0_MEMBER_1_FILL"/>
</g>

<g filter="url(#Filter_4)" transform="matrix( 1, 0, 0, 1, 0,0) ">
<g transform="matrix( 3.69927978515625, 0, 0, 3.69927978515625, 37.35,179.15) ">
<g transform="matrix( 1, 0, 0, 1, 0,0) ">
<use filter="url(#Filter_2)" xlink:href="#vector_file_ai_Layer_1__Path__2_7_0_Layer0_0_FILL"/>
</g>
</g>
</g>

<g transform="matrix( 3.69927978515625, 0, 0, 3.69927978515625, -1481,-777.4) ">
<use xlink:href="#Layer0_0_MEMBER_11_MEMBER_2_MEMBER_0_FILL"/>
</g>

<g transform="matrix( 3.69927978515625, 0, 0, 3.69927978515625, -1481,-777.4) ">
<use xlink:href="#Layer0_0_MEMBER_11_MEMBER_2_MEMBER_1_FILL"/>
</g>

<g filter="url(#Filter_5)" transform="matrix( 1, 0, 0, 1, 0,0) ">
<g transform="matrix( 3.69927978515625, 0, 0, 3.69927978515625, 37.35,175.35) ">
<g transform="matrix( 1, 0, 0, 1, 0,0) ">
<use filter="url(#Filter_2)" xlink:href="#vector_file_ai_Layer_1__Path__9_0_Layer0_0_FILL"/>
</g>
</g>
</g>

<g transform="matrix( 3.69927978515625, 0, 0, 3.69927978515625, -1481,-777.4) ">
<use xlink:href="#Layer0_0_MEMBER_12_MEMBER_0_MEMBER_0_FILL"/>
</g>

<g transform="matrix( 3.69927978515625, 0, 0, 3.69927978515625, -1481,-777.4) ">
<use xlink:href="#Layer0_0_MEMBER_12_MEMBER_1_FILL"/>
</g>
</g>
</svg>
